Coordinates
version=1
nRows=16
nColumns=36
inDegrees=yes

Units are S.I. units (second, meters, Newtons, ...)
If the header above contains a line with 'inDegrees', this indicates whether rotational values are in degrees (yes) or radians (no).

endheader
time	pelvis_tilt	pelvis_list	pelvis_rotation	pelvis_tx	pelvis_ty	pelvis_tz	hip_flexion_r	hip_adduction_r	hip_rotation_r	knee_angle_r	knee_angle_r_beta	ankle_angle_r	subtalar_angle_r	mtp_angle_r	hip_flexion_l	hip_adduction_l	hip_rotation_l	knee_angle_l	knee_angle_l_beta	ankle_angle_l	subtalar_angle_l	mtp_angle_l	lumbar_extension	lumbar_bending	lumbar_rotation	arm_flex_r	arm_add_r	arm_rot_r	elbow_flex_r	pro_sup_r	arm_flex_l	arm_add_l	arm_rot_l	elbow_flex_l	pro_sup_l
      3.65000000	     -6.91474654	     -1.71048847	      4.40906206	      0.38283379	      0.97639091	     -0.04539204	     10.43677625	     -3.66421249	     -8.27554865	     10.20159373	      0.17805140	      3.53507016	    -14.96135674	     -7.49999987	     15.19484988	     -7.58185353	      2.35431874	     16.73333768	      0.29205184	      4.91626507	    -10.92025751	     -7.49999987	     -4.89390855	      1.87114057	     -3.83177550	     13.63299730	    -14.66280859	     31.74168554	     18.99221968	     54.33772352	     12.58791721	    -18.84472726	     21.95245358	     34.98558204	     44.28059789
      3.65416670	     -6.94214001	     -1.74016922	      4.37766242	      0.38213765	      0.97626482	     -0.04533473	     10.48601622	     -3.64248202	     -8.43632980	     10.17897432	      0.17765662	      3.81147457	    -14.47652103	     -7.49999987	     15.23085656	     -7.63780620	      2.21587997	     16.71318489	      0.29170010	      5.08148258	    -10.66995564	     -7.49999987	     -5.01508321	      1.84405886	     -3.65096982	     13.64539182	    -14.66680107	     31.34833612	     18.91635359	     54.51257012	     12.82451555	    -18.73282450	     22.02106759	     34.61279331	     44.87413241
      3.65833330	     -6.98425007	     -1.73727441	      4.36403509	      0.38291352	      0.97628618	     -0.04552701	     10.51120835	     -3.62377489	     -8.33996397	     10.11382274	      0.17651951	      3.79872977	    -14.58360797	     -7.49999987	     15.25536036	     -7.63854560	      2.14659982	     16.68181087	      0.29115252	      5.03311615	    -10.66527924	     -7.49999987	     -5.13055730	      1.81152437	     -3.63784051	     13.61139033	    -14.66090292	     31.02722575	     19.00494138	     54.62937449	     12.79280668	    -18.72209308	     21.81908451	     34.61932707	     45.23382056
      3.66250000	     -7.03300935	     -1.75316254	      4.29497789	      0.38222348	      0.97315181	     -0.04527404	     10.61514989	     -3.62691070	     -8.38951727	     10.18044802	      0.17768234	      3.81874020	    -14.58253744	     -7.49999987	     15.21953887	     -7.65481945	      2.06894966	     16.56209076	      0.28906301	      5.18706504	    -10.52334438	     -7.49999987	     -5.20043983	      1.74278650	     -3.57268172	     13.49142975	    -14.61197099	     30.29146330	     19.15928577	     55.11867699	     12.72884785	    -18.77895080	     21.19900086	     34.62208354	     46.47819807
      3.66666670	     -7.11428024	     -1.74585670	      4.24198192	      0.38300215	      0.97645952	     -0.04543595	     10.69066245	     -3.63674895	     -8.32649959	     10.12912814	      0.17678664	      3.61502910	    -14.54939017	     -7.49999987	     15.16721889	     -7.61965313	      2.09468516	     16.34939851	      0.28535083	      5.08883017	    -10.65783480	     -7.49999987	     -5.17749559	      1.70016929	     -3.59528960	     13.36149174	    -14.49048468	     29.76189081	     19.12435816	     55.59203193	     12.44357857	    -18.74395975	     20.82862187	     34.55653966	     47.49989276
      3.67083330	     -7.09510630	     -1.77035986	      4.20388813	      0.38629085	      0.97337822	     -0.05002581	     10.64724314	     -3.71010501	     -8.35082527	     10.21545062	      0.17829325	      3.60012263	    -14.49247166	     -7.49999987	     14.97064805	     -7.55478452	      2.15638919	     16.17214644	      0.28225720	      5.26127307	    -10.74403412	     -7.49999987	     -5.05723529	      1.79457513	     -3.52057481	     13.12884938	    -14.64632946	     29.82507619	     19.04356404	     55.59786328	     12.14097481	    -18.63080456	     20.92643400	     34.43467978	     47.45777383
      3.67500000	     -7.10940604	     -1.78180317	      4.21739919	      0.38288570	      0.97653303	     -0.04525631	     10.65612616	     -3.70501626	     -8.35396311	     10.21144218	      0.17822329	      3.59817172	    -14.48965211	     -7.49999987	     14.98462423	     -7.55708479	      2.15946784	     16.16198495	      0.28207985	      5.26521144	    -10.74734411	     -7.49999987	     -5.06595598	      1.80173832	     -3.51212591	     13.12280519	    -14.64340414	     29.82746377	     19.04322924	     55.59825883	     12.12496202	    -18.62294121	     20.92980462	     34.42748836	     47.45685987
      3.67916670	     -6.96931134	     -1.75045525	      4.08203362	      0.39061923	      0.97679092	     -0.04568085	     10.27154204	     -3.70751158	     -8.46151834	      9.97462177	      0.17408999	      3.58183326	    -13.98977724	     -7.49999987	     14.37655442	     -7.54129938	      2.29757082	     15.60889023	      0.27242653	      4.97154259	    -11.22031478	     -7.49999987	     -4.95728309	      1.74731506	     -3.16982025	     12.72152467	    -14.56654481	     30.41198952	     18.65676599	     55.69554127	     12.13291364	    -18.34421711	     21.33274278	     33.00864087	     47.14802458
      3.68333330	     -7.04307237	     -1.71997663	      4.02856465	      0.38686702	      0.97655630	     -0.04987150	     10.27675076	     -3.84650260	     -8.58831653	      9.98104832	      0.17420216	      3.50157813	    -14.01061834	     -7.49999987	     14.31914867	     -7.41491481	      2.26116568	     15.51371624	      0.27076543	      5.05128074	    -11.26928448	     -7.49999987	     -4.96862058	      1.84866638	     -3.15843183	     12.70821623	    -14.67640931	     30.42162721	     18.63235175	     55.69492369	     11.97482837	    -18.23713706	     21.39628290	     32.94803927	     47.14102843
      3.68750000	     -6.95585764	     -1.68578582	      4.02911949	      0.39060421	      0.97673085	     -0.04556815	      9.95686373	     -3.83616093	     -8.65325989	      9.75474519	      0.17025242	      3.41151283	    -14.02958054	     -7.49999987	     13.96211063	     -7.38410731	      2.37365787	     15.24006595	      0.26598933	      5.02579891	    -11.33820873	     -7.49999987	     -4.88246194	      1.82953998	     -3.20369288	     12.52340240	    -14.60908918	     30.54692224	     18.59772995	     55.71122214	     11.81925266	    -18.22987820	     21.57000174	     32.44702356	     47.08013126
      3.69166670	     -6.78997207	     -1.65389064	      3.95591922	      0.39110851	      0.97694263	     -0.04552597	      9.63514284	     -3.83112149	     -8.68427494	      9.66472022	      0.16868119	      3.26705673	    -14.24152835	     -7.49999987	     13.54376535	     -7.37548927	      2.39732369	     15.02892939	      0.26230430	      4.94682356	    -11.47208236	     -7.49999987	     -5.00411273	      1.84076029	     -2.99157915	     12.34391308	    -14.61650754	     30.47374859	     18.51873600	     55.87129237	     11.80378013	    -18.08016309	     21.50813633	     31.69126466	     47.26486479
      3.69583330	     -6.70192331	     -1.64431138	      3.81376217	      0.39055772	      0.97699598	     -0.04528272	      9.46245045	     -3.76913072	     -8.57468304	      9.55329167	      0.16673639	      3.34349350	    -14.25385695	     -7.49999987	     13.26207553	     -7.40959255	      2.37873831	     14.86464967	      0.25943708	      4.97012309	    -11.52410302	     -7.49999987	     -5.08172657	      1.84766064	     -2.80721721	     12.31697582	    -14.51796684	     30.38452039	     18.57214739	     56.07104226	     11.74815314	    -18.06586488	     21.41651417	     31.31882129	     47.56411570
      3.70000000	     -6.67031082	     -1.62565241	      3.67671229	      0.39127286	      0.97430143	     -0.04511335	      9.39241171	     -3.75419474	     -8.63332387	      9.53394408	      0.16639871	      3.46614584	    -14.15187044	     -7.49999987	     13.09849148	     -7.41435094	      2.28843832	     14.75660701	      0.25755138	      4.98916319	    -11.65365681	     -7.49999987	     -5.03175000	      1.82517077	     -2.54680302	     12.22525078	    -14.59729613	     30.98053337	     18.42978381	     56.84756952	     11.91370078	    -18.09499773	     22.05137713	     30.75554241	     48.00745204
      3.70416670	     -6.63378298	     -1.58240012	      3.51174972	      0.39058224	      0.97469397	     -0.04488626	      9.38110734	     -3.73775750	     -8.63081825	      9.50333128	      0.16586442	      3.42616790	    -14.42513520	     -7.49999987	     12.97196603	     -7.40920238	      2.11219586	     14.64304466	      0.25556934	      5.01190678	    -11.76027256	     -7.49999987	     -5.10260449	      1.77670878	     -2.40294297	     12.07743097	    -14.49982536	     30.42689158	     18.49579080	     57.02874007	     11.74619647	    -18.00253297	     21.30813478	     30.66796681	     48.63135007
      3.70833330	     -6.62078714	     -1.58177467	      3.33733097	      0.39106991	      0.97507173	     -0.04468106	      9.43556194	     -3.63959633	     -8.49284484	      9.48466274	      0.16553859	      3.49790215	    -14.46713224	     -7.49999987	     12.88515383	     -7.44023199	      2.04544096	     14.54904785	      0.25392879	      4.93922438	    -12.04021417	     -7.49999987	     -5.17795946	      1.72005300	     -2.25597754	     12.16898724	    -14.40014621	     30.33960126	     18.59137663	     57.16081463	     11.79163184	    -17.98672466	     21.04575274	     30.45603030	     48.78316043
      3.71250000	     -6.61817144	     -1.54147764	      3.24670581	      0.39038507	      0.97812963	     -0.04452818	      9.42710034	     -3.63553396	     -8.43260123	      9.39442129	      0.16396358	      3.68135750	    -14.07549407	     -7.49999987	     12.80625361	     -7.42080830	      1.96986027	     14.38832197	      0.25112359	      4.87365765	    -12.10141945	     -7.49999987	     -5.21011967	      1.66238652	     -2.10503692	     12.06315364	    -14.25292994	     29.77814439	     18.73131936	     57.58487865	     11.57904372	    -17.81251580	     20.27871423	     30.26684376	     49.86423878
